<?xml version="1.0" standalone="no"?>
<!DOCTYPE svg PUBLIC "-//W3C//DTD SVG 20010904//EN"
 "http://www.w3.org/TR/2001/REC-SVG-20010904/DTD/svg10.dtd">
<svg version="1.0" xmlns="http://www.w3.org/2000/svg"
 width="695.000000pt" height="198.000000pt" viewBox="0 0 695.000000 198.000000"
 preserveAspectRatio="xMidYMid meet">

<g transform="translate(0.000000,198.000000) scale(0.100000,-0.100000)"
fill="#000000" stroke="none">
<path d="M5611 1718 c1 -128 4 -372 8 -543 3 -171 5 -320 3 -332 -5 -29 -48
-43 -128 -43 l-64 0 0 -61 0 -62 65 6 c69 7 96 17 132 50 l23 20 20 -26 c27
-34 75 -47 178 -47 l82 0 0 60 0 60 -68 0 c-110 0 -105 -11 -113 261 -4 129
-8 381 -8 562 l-1 327 -65 0 -65 0 1 -232z"/>
<path d="M2070 1550 c-25 -16 -45 -31 -45 -34 0 -3 17 -28 38 -56 41 -55 41
-55 101 -3 l36 32 -32 45 c-18 25 -37 45 -43 45 -5 0 -30 -13 -55 -29z"/>
<path d="M3120 1550 c-25 -16 -45 -31 -45 -34 0 -3 17 -28 38 -56 41 -55 41
-55 101 -3 l36 32 -32 45 c-18 25 -37 45 -43 45 -5 0 -30 -13 -55 -29z"/>
<path d="M6047 1480 c-52 -33 -52 -32 0 -98 l34 -42 50 41 49 42 -37 41 c-20
23 -39 42 -42 43 -3 2 -28 -11 -54 -27z"/>
<path d="M6257 1479 c-34 -21 -46 -34 -40 -42 5 -7 24 -31 42 -54 l33 -43 49
42 49 41 -37 41 c-20 23 -39 42 -42 43 -3 2 -28 -11 -54 -28z"/>
<path d="M4995 1364 c-22 -15 -44 -30 -49 -35 -10 -8 23 -66 53 -93 19 -18 21
-17 65 19 26 21 46 40 46 44 -1 3 -18 25 -38 48 l-37 43 -40 -26z"/>
<path d="M5198 1359 c-27 -17 -48 -35 -48 -39 0 -10 70 -100 78 -100 4 0 27
17 51 38 l44 38 -34 46 c-19 26 -36 47 -39 47 -3 1 -26 -13 -52 -30z"/>
<path d="M589 1351 c-63 -13 -106 -47 -136 -109 -27 -54 -28 -66 -33 -235 -6
-200 -4 -197 -82 -197 l-48 0 0 -65 0 -65 68 0 c53 0 79 5 113 23 68 36 78 73
78 284 1 106 5 182 12 197 7 14 28 33 47 42 32 15 41 15 76 3 73 -26 78 -42
84 -258 l5 -191 62 0 62 0 5 191 c5 170 7 193 25 217 27 36 63 48 109 36 69
-17 76 -38 83 -251 7 -217 11 -230 89 -266 67 -31 230 -32 282 -1 78 45 97
120 81 319 -5 61 -7 112 -5 114 2 2 17 -2 35 -8 43 -15 165 -13 212 3 20 8 53
26 72 40 34 26 75 91 75 119 0 7 -24 25 -54 39 l-54 27 -12 -28 c-6 -16 -25
-42 -41 -57 -26 -25 -38 -29 -87 -29 -76 0 -156 39 -160 78 -2 15 -8 27 -14
27 -28 0 -118 -33 -118 -43 0 -7 7 -106 15 -222 8 -115 12 -220 8 -233 -7 -29
-39 -42 -108 -42 -82 0 -85 5 -85 175 0 79 -5 167 -11 195 -14 63 -62 129
-114 155 -75 36 -199 20 -277 -37 -14 -10 -20 -9 -35 5 -44 39 -153 62 -224
48z"/>
<path d="M4059 1351 c-63 -13 -106 -47 -136 -109 -27 -54 -28 -66 -33 -235 -6
-200 -4 -197 -82 -197 l-48 0 0 -65 0 -65 68 0 c53 0 79 5 113 23 68 36 78 73
78 284 1 106 5 182 12 197 7 14 28 33 47 42 32 15 41 15 76 3 73 -26 78 -42
84 -258 l5 -191 62 0 62 0 5 191 c5 170 7 193 25 217 27 36 63 48 109 36 69
-17 76 -38 83 -251 5 -160 9 -193 24 -217 28 -42 97 -68 197 -74 l87 -5 11
-43 c16 -58 74 -117 153 -154 113 -52 177 -62 472 -67 l267 -5 0 66 0 66 -219
0 c-316 0 -459 25 -527 91 -19 18 -34 36 -34 40 0 3 34 9 75 13 145 13 245 58
280 127 19 36 19 124 0 180 -34 100 -116 159 -221 159 -147 0 -252 -113 -271
-292 -5 -46 -9 -58 -20 -54 -8 4 -36 6 -63 6 -77 0 -80 7 -80 175 0 79 -5 167
-11 195 -14 63 -62 129 -114 155 -75 36 -199 20 -277 -37 -14 -10 -20 -9 -35
5 -44 39 -153 62 -224 48z m1132 -356 c64 -33 90 -125 47 -165 -28 -26 -74
-39 -167 -47 l-74 -6 6 51 c9 75 40 138 79 162 40 24 69 25 109 5z"/>
<path d="M2410 1092 c0 -190 -3 -242 -14 -258 -11 -15 -31 -20 -93 -25 -43 -3
-85 -2 -94 2 -20 10 -29 111 -29 332 l0 157 -67 0 -66 0 5 -222 c2 -123 3
-231 1 -240 -6 -23 -55 -38 -129 -38 l-64 0 0 -61 0 -62 65 6 c69 7 96 17 132
50 l22 20 30 -30 c35 -35 66 -43 170 -43 137 0 212 38 240 119 6 19 11 97 11
177 l0 143 38 31 c64 53 149 65 168 23 4 -10 10 -104 13 -208 5 -159 9 -195
24 -218 30 -46 61 -59 155 -65 93 -5 130 5 179 50 l22 21 30 -30 c35 -35 66
-43 172 -43 l79 0 0 60 0 60 -68 0 c-109 0 -104 -12 -110 263 l-5 237 -65 0
-65 0 5 -222 c2 -123 3 -231 1 -240 -6 -24 -37 -32 -118 -29 -116 4 -113 -1
-117 213 -2 152 -6 189 -21 215 -47 87 -163 110 -264 53 l-53 -30 0 35 0 35
-60 0 -60 0 0 -238z"/>
<path d="M6145 1255 c-81 -49 -150 -119 -183 -185 -36 -73 -38 -202 -5 -266
60 -114 211 -163 364 -118 138 41 206 205 148 359 -25 68 -105 157 -180 202
-78 47 -79 47 -144 8z m135 -125 c94 -92 125 -208 73 -279 -32 -44 -100 -73
-161 -68 -125 9 -184 121 -129 241 29 62 117 156 147 156 10 0 42 -22 70 -50z"/>
</g>
</svg>
